<?xml version="1.0" encoding="UTF-8"?>
<svg width="40px" height="40px" viewBox="0 0 40 40" version="1.1" xmlns="http://www.w3.org/2000/svg" xmlns:xlink="http://www.w3.org/1999/xlink">
    <!-- Generator: Sketch 52 (66869) - http://www.bohemiancoding.com/sketch -->
    <title>Icon / Price $</title>
    <desc>Created with Sketch.</desc>
    <g id="Icon-/-Price-$" stroke="none" stroke-width="1" fill="none" fill-rule="evenodd">
        <path d="M21.4,15.368 L21.4,18.056 C21.592,18.152 21.712,18.224 21.736,18.224 C22.264,18.416 22.768,18.584 23.272,18.752 C25.576,19.544 27.088,21.512 27.088,23.768 C27.088,25.832 25.912,27.536 24.016,28.208 C23.344,28.448 22.648,28.544 21.4,28.568 L21.4,29.96 C21.4,30.656 21.4,30.752 21.28,30.968 C21.16,31.208 20.848,31.4 20.536,31.4 C20.224,31.4 19.912,31.208 19.792,30.968 C19.672,30.752 19.672,30.68 19.672,29.96 L19.672,28.376 C19.072,28.304 18.856,28.28 17.992,28.136 C17.824,28.112 17.68,28.088 17.584,28.088 C17.32,28.088 17.272,28.136 16.912,28.712 C16.768,28.976 16.552,29.12 16.336,29.12 C16,29.12 15.784,28.928 15.52,28.424 L13.792,25.088 C13.672,24.872 13.624,24.704 13.624,24.536 C13.624,24.224 13.888,23.936 14.176,23.936 C14.392,23.936 14.488,23.984 15.208,24.608 C17.056,26 17.944,26.36 19.672,26.408 L19.672,21.584 C17.368,20.648 16.96,20.456 16.36,20.048 C15.064,19.184 14.512,18.248 14.512,16.904 C14.512,14.72 16.168,13.28 18.712,13.28 C18.904,13.28 19.264,13.304 19.672,13.352 L19.672,11.84 C19.672,11.144 19.672,11.048 19.792,10.832 C19.912,10.592 20.224,10.4 20.536,10.4 C20.848,10.4 21.16,10.592 21.28,10.832 C21.4,11.048 21.4,11.12 21.4,11.84 L21.4,13.28 C21.472,13.232 21.52,13.208 21.544,13.208 C21.592,13.16 21.688,13.088 21.832,12.968 C22.024,12.8 22.192,12.728 22.336,12.728 C22.552,12.728 22.672,12.824 22.96,13.208 L25.048,15.944 C25.24,16.184 25.312,16.376 25.312,16.544 C25.312,16.856 25.072,17.144 24.808,17.144 C24.592,17.144 24.448,17.072 23.896,16.664 C22.624,15.8 22.144,15.56 21.4,15.368 Z M19.672,17.624 L19.672,15.08 L19.312,15.08 C18.664,15.104 18.232,15.56 18.232,16.232 C18.232,16.904 18.592,17.264 19.672,17.624 Z M21.4,22.208 L21.4,26.456 C22.024,26.36 22.288,26.288 22.624,26.12 C23.224,25.808 23.632,25.136 23.632,24.44 C23.632,23.456 22.936,22.76 21.4,22.208 Z" id="$" fill="#FFFFFF"></path>
    </g>
</svg>