<?xml version="1.0" encoding="UTF-8"?>
<svg width="40px" height="40px" viewBox="0 0 40 40" version="1.1" xmlns="http://www.w3.org/2000/svg" xmlns:xlink="http://www.w3.org/1999/xlink">
    <!-- Generator: Sketch 52 (66869) - http://www.bohemiancoding.com/sketch -->
    <title>Icon / Important !</title>
    <desc>Created with Sketch.</desc>
    <g id="Icon-/-Important-!" stroke="none" stroke-width="1" fill="none" fill-rule="evenodd">
        <path d="M21.872,26.456 L21.872,27.992 C21.872,28.88 21.728,29 20.624,29 L19.208,29 C18.224,29 18.128,28.904 18.128,27.944 L18.128,26.336 C18.128,25.496 18.344,25.304 19.304,25.304 L20.624,25.304 C21.752,25.304 21.872,25.4 21.872,26.456 Z M19.088,22.352 L18.128,16.904 C18.008,16.208 17.864,15.056 17.864,14.72 C17.864,13.448 18.632,12.728 20,12.728 C21.392,12.728 22.136,13.448 22.136,14.792 C22.136,15.248 22.064,15.992 21.92,16.76 L20.984,22.352 C20.912,22.712 20.864,22.976 20.816,23.168 C20.744,23.504 20.696,23.744 20.696,23.768 C20.6,24.224 20.528,24.32 20.192,24.296 L20.024,24.296 C19.592,24.296 19.496,24.248 19.4,24.008 C19.304,23.696 19.304,23.672 19.088,22.352 Z" id="!" fill="#FFFFFF"></path>
    </g>
</svg>