<?xml version="1.0" encoding="UTF-8"?>
<svg width="40px" height="40px" viewBox="0 0 40 40" version="1.1" xmlns="http://www.w3.org/2000/svg" xmlns:xlink="http://www.w3.org/1999/xlink">
    <!-- Generator: Sketch 52 (66869) - http://www.bohemiancoding.com/sketch -->
    <title>Icon / More +</title>
    <desc>Created with Sketch.</desc>
    <g id="Icon-/-More-+" stroke="none" stroke-width="1" fill="none" fill-rule="evenodd">
        <path d="M21.32,21.448 L21.32,24.592 C21.32,25.432 21.176,25.576 20.36,25.576 L19.712,25.576 C18.848,25.576 18.68,25.408 18.68,24.472 L18.68,21.448 L15.536,21.448 C14.696,21.448 14.552,21.304 14.552,20.488 L14.552,19.84 C14.552,18.976 14.72,18.808 15.656,18.808 L18.68,18.808 L18.68,15.856 C18.68,15.16 18.68,15.112 18.8,14.944 C18.92,14.776 19.16,14.68 19.472,14.68 L20.408,14.68 C21.152,14.68 21.32,14.872 21.32,15.736 L21.32,18.808 L24.248,18.808 C24.944,18.808 24.992,18.808 25.16,18.928 C25.328,19.048 25.424,19.288 25.424,19.6 L25.424,20.536 C25.424,21.28 25.232,21.448 24.368,21.448 L21.32,21.448 Z" id="+" fill="#FFFFFF"></path>
    </g>
</svg>