<?xml version="1.0" encoding="UTF-8"?>
<svg width="40px" height="40px" viewBox="0 0 40 40" version="1.1" xmlns="http://www.w3.org/2000/svg" xmlns:xlink="http://www.w3.org/1999/xlink">
    <!-- Generator: Sketch 52 (66869) - http://www.bohemiancoding.com/sketch -->
    <title>Icon / Question ?</title>
    <desc>Created with Sketch.</desc>
    <g id="Icon-/-Question-?" stroke="none" stroke-width="1" fill="none" fill-rule="evenodd">
        <path d="M20.564,29 L18.836,29 C17.996,29 17.876,28.856 17.876,28.016 L17.876,26.24 C17.876,25.424 18.02,25.28 18.788,25.28 L20.492,25.28 C21.38,25.28 21.548,25.424 21.548,26.168 L21.548,28.016 C21.548,28.904 21.452,29 20.564,29 Z M19.484,17.96 L19.484,18.104 C19.436,18.656 18.74,19.16 18.02,19.16 C16.604,19.16 15.62,18.056 15.62,16.472 C15.62,14.336 17.42,12.776 19.844,12.776 C22.46,12.776 24.356,14.672 24.356,17.24 C24.356,18.224 24.068,19.256 23.564,20.024 C23.252,20.528 23.252,20.528 21.812,21.872 C20.924,22.712 20.564,23.216 20.468,23.768 C20.348,24.488 20.228,24.608 19.676,24.608 C19.028,24.608 18.668,24.152 18.668,23.312 C18.668,22.784 18.812,22.256 19.076,21.776 C19.172,21.584 19.172,21.584 20.036,20.408 C20.78,19.4 21.236,18.344 21.236,17.648 C21.236,16.664 20.708,15.92 19.988,15.92 C19.364,15.92 18.884,16.472 18.884,17.192 C18.884,17.672 19.076,17.912 19.484,17.96 Z" id="?" fill="#FFFFFF"></path>
    </g>
</svg>